<svg id="Capa_1" data-name="Capa 1" xmlns="http://www.w3.org/2000/svg" xmlns:xlink="http://www.w3.org/1999/xlink" viewBox="0 0 289.67 122.43"><defs><clipPath id="clip-path" transform="translate(-35.46 -126.36)"><rect x="35" y="126.07" width="122.52" height="122.93" style="fill:none"/></clipPath><clipPath id="clip-path-2" transform="translate(-35.46 -126.36)"><rect x="82.39" y="162.11" width="19.5" height="51" style="fill:none"/></clipPath></defs><g style="clip-path:url(#clip-path)"><path d="M137.89,162.5l-4.22-.71,4.23.67Zm-36.75,75.64c-2.51,1.66-5.13,3.31-8,4.91l-1.4.8-1.4-.8C36.07,212.13,39.44,167.89,40,163l0-.15v-.15a5.09,5.09,0,0,1,1.12-3.34,5,5,0,0,1,3.57-1.83c19.9-1.16,40.07-18.78,44.74-25.6l.84-1.24h3.43l.85,1.24c4.82,7.06,24.43,24.44,44.3,25.6a5,5,0,0,1,3.56,1.83,5.12,5.12,0,0,1,1.13,3.34v.15l0,.15a63,63,0,0,1-1.51,19.92,34,34,0,0,1,3.87,2.17,68.83,68.83,0,0,0,1.91-22.43,9.3,9.3,0,0,0-8.73-9.41c-18.37-1.06-36.53-17.2-41-23.74L96,126.36H88l-2.13,3.09c-4.33,6.33-23,22.68-41.45,23.75a9.27,9.27,0,0,0-6.64,3.41,9.38,9.38,0,0,0-2.09,6c-.41,3.74-1.16,16.47,4.9,32.39,7.95,20.9,24,38.32,47.64,51.79l3.52,2,3.52-2c3.2-1.82,6.18-3.69,9-5.59A38,38,0,0,1,101.14,238.14Zm35.64-57.35a59,59,0,0,0,1.29-15.87l-.13-1.78-1.78-.2c-21.94-2.45-39.31-19.93-42.57-23.41L92,137.86l-1.56,1.67c-7.22,7.7-24.42,21.29-43,23.4l-1.78.2-.12,1.78c-.29,4.16-.35,15.3,5.35,28.82,7.15,17,20.55,31.42,39.83,42.94l1.1.66,1.1-.66c1.62-1,3.18-2,4.72-3a36.72,36.72,0,0,1-2.15-3.77c-1.44,1-2.69,1.79-3.67,2.4C52.09,208.06,49.5,176.54,49.71,167c17.91-2.7,34.22-14.87,42.31-22.87,9.77,9.85,25.3,20.43,41.86,22.88a55.22,55.22,0,0,1-1,12.93A34.14,34.14,0,0,1,136.78,180.79Zm20.76,33.57a30.72,30.72,0,1,1-30.72-30.72A30.76,30.76,0,0,1,157.54,214.36Zm-4.29,0a26.44,26.44,0,1,0-26.43,26.43A26.46,26.46,0,0,0,153.25,214.36Zm-6.56-2.14v4.29h-5.78a14.16,14.16,0,0,1-2.61,6.31l4.08,4.08-3,3-4.07-4.07a14.12,14.12,0,0,1-6.32,2.63v5.74h-4.29v-5.74a14.28,14.28,0,0,1-6.32-2.63l-4.07,4.07-3-3,4.07-4.08a14.19,14.19,0,0,1-2.6-6.32h-5.78v-4.28h5.79a14.19,14.19,0,0,1,2.63-6.28l-4.11-4.12,3-3,4.11,4.11a14.23,14.23,0,0,1,6.28-2.59v-5.83H129v5.83a14.14,14.14,0,0,1,6.27,2.59l4.12-4.11,3,3-4.11,4.12a14.18,14.18,0,0,1,2.62,6.28Zm-9.9,2.19a10,10,0,1,0-10,10A10,10,0,0,0,136.79,214.41ZM129,211.3v-.49a2.14,2.14,0,1,0-4.28,0v.49a2.14,2.14,0,1,0,4.28,0Zm-7.17,2.39a2.14,2.14,0,0,0-2.14,2.14v.49a2.15,2.15,0,0,0,4.29,0v-.49A2.14,2.14,0,0,0,121.79,213.69Zm7.53,2.51a2.14,2.14,0,0,0-2.14,2.14v.49a2.15,2.15,0,1,0,4.29,0v-.49A2.14,2.14,0,0,0,129.32,216.2Z" transform="translate(-35.46 -126.36)" style="fill:#11325b"/></g><g style="clip-path:url(#clip-path-2)"><path d="M85.79,172.68h-3.4v2.26h3.4v25.53h1.69v3.67H91V213h2.26v-8.89h3.54v-3.67H98.5V174.94h3.39v-2.26H95.54v-8.22H98V162.2H86.28v2.26h2.47v8.22Zm8.76,29.2H89.74v-1.41h4.81Zm1.69-26.94v23.27H88.05V174.94ZM91,164.5h2.26v8.18H91Z" transform="translate(-35.46 -126.36)" style="fill:#35b8cf"/></g><path d="M169.45,169.42h4.25l3.22,14.32h.14l3.22-14.32h4.28l-5.12,18.1H174.5Z" transform="translate(-35.46 -126.36)" style="fill:#11325b"/><path d="M190.69,187.84a4.14,4.14,0,0,1-3.16-1.31,5.3,5.3,0,0,1-1.25-3.79,4,4,0,0,1,1.77-3.63,9.45,9.45,0,0,1,5.12-1.14h1.94a4.72,4.72,0,0,0-.34-2.22q-.33-.51-1.5-.51a15,15,0,0,0-2.61.26,28.23,28.23,0,0,0-3.17.77l-.82-2.88a15.32,15.32,0,0,1,3-.9,16.47,16.47,0,0,1,3.51-.44q3.18,0,4.54,1.45a6,6,0,0,1,1.35,4.24v9.78h-2.51l-.52-1.68h-.15c-.21.16-.48.36-.82.58a11.79,11.79,0,0,1-1.89.88A7,7,0,0,1,190.69,187.84Zm4.42-6.92a19.28,19.28,0,0,0-2.41-.12,3.15,3.15,0,0,0-1.93.39,2,2,0,0,0-.43,1.47,2.42,2.42,0,0,0,.35,1.5,1.34,1.34,0,0,0,1.08.42,6.54,6.54,0,0,0,2.82-.72l.52-.25Z" transform="translate(-35.46 -126.36)" style="fill:#11325b"/><path d="M213.63,175.63a30,30,0,0,0-4.23-.41,3,3,0,0,0-2.11.56c-.64.67-.95,2.1-.95,4.28s.41,3.61,1.23,4.24a2.05,2.05,0,0,0,1.28.39,10.82,10.82,0,0,0,3.75-.92l.78-.32,1.08,2.83c-.16.12-.38.26-.67.44a10.88,10.88,0,0,1-1.86.69,9.71,9.71,0,0,1-2.88.43,6.58,6.58,0,0,1-5-1.93q-1.85-1.93-1.84-6c0-3,.75-5.1,2.27-6.26a8.23,8.23,0,0,1,5.25-1.58,17.17,17.17,0,0,1,4.34.56Z" transform="translate(-35.46 -126.36)" style="fill:#11325b"/><path d="M227.61,175.63a30.11,30.11,0,0,0-4.24-.41,3,3,0,0,0-2.11.56c-.63.67-.95,2.1-.95,4.28s.41,3.61,1.23,4.24a2.08,2.08,0,0,0,1.29.39,10.92,10.92,0,0,0,3.75-.92l.78-.32,1.07,2.83a7.87,7.87,0,0,1-.67.44,10.53,10.53,0,0,1-1.86.69,9.64,9.64,0,0,1-2.87.43,6.55,6.55,0,0,1-5-1.93q-1.84-1.93-1.85-6,0-4.51,2.27-6.26a8.23,8.23,0,0,1,5.25-1.58,17.05,17.05,0,0,1,4.34.56Z" transform="translate(-35.46 -126.36)" style="fill:#11325b"/><path d="M235.08,187.52h-4V172.39h4Zm.25-16.91h-4.5v-2.67h4.5Z" transform="translate(-35.46 -126.36)" style="fill:#11325b"/><path d="M243.25,187.52h-4V172.39h2.54l.47,1.52h.16a11.1,11.1,0,0,1,5.42-1.86A3.24,3.24,0,0,1,251,173.5a8.36,8.36,0,0,1,.83,4.11v9.91h-4v-9.16a4.85,4.85,0,0,0-.34-2.42,1.25,1.25,0,0,0-1.05-.42,5.52,5.52,0,0,0-3.17,1.09Z" transform="translate(-35.46 -126.36)" style="fill:#11325b"/><path d="M259.22,187.84a4.16,4.16,0,0,1-3.16-1.31,5.3,5.3,0,0,1-1.25-3.79,4,4,0,0,1,1.77-3.63A9.45,9.45,0,0,1,261.7,178h1.94a4.72,4.72,0,0,0-.34-2.22q-.33-.51-1.5-.51a15,15,0,0,0-2.61.26,28.23,28.23,0,0,0-3.17.77l-.82-2.88a15.32,15.32,0,0,1,3-.9,16.47,16.47,0,0,1,3.51-.44q3.18,0,4.54,1.45a6,6,0,0,1,1.36,4.24v9.78h-2.52l-.52-1.68h-.15c-.21.16-.48.36-.81.58a12.49,12.49,0,0,1-1.9.88A7,7,0,0,1,259.22,187.84Zm4.42-6.92a19.17,19.17,0,0,0-2.41-.12,3.15,3.15,0,0,0-1.93.39,2,2,0,0,0-.42,1.47,2.43,2.43,0,0,0,.34,1.5,1.34,1.34,0,0,0,1.08.42,6.58,6.58,0,0,0,2.83-.72l.51-.25Z" transform="translate(-35.46 -126.36)" style="fill:#11325b"/><path d="M275.88,173.13H279v3.06h-3.14v6.36a3.3,3.3,0,0,0,.23,1.58,1,1,0,0,0,.87.32l2-.12v3.23a12.65,12.65,0,0,1-2.78.28,4.28,4.28,0,0,1-3.27-1.1c-.69-.75-1-2.18-1-4.29v-6.34H270.1v-2.48l1.92-.36.6-3.58h3.26Z" transform="translate(-35.46 -126.36)" style="fill:#11325b"/><path d="M286,187.52h-4V172.39h4Zm.25-16.91h-4.5v-2.67h4.5Z" transform="translate(-35.46 -126.36)" style="fill:#11325b"/><path d="M290.88,174.08q1.53-2,5.12-2t5.11,2a12.17,12.17,0,0,1,0,11.78c-1,1.34-2.7,2-5.11,2s-4.1-.67-5.12-2a12,12,0,0,1,0-11.75Zm7.69,5.87a9.23,9.23,0,0,0-.54-3.9,2.1,2.1,0,0,0-2-1,2.14,2.14,0,0,0-2.05,1,14.54,14.54,0,0,0,0,7.78,2.14,2.14,0,0,0,2.05,1,2.11,2.11,0,0,0,2-.95A9.2,9.2,0,0,0,298.57,180Z" transform="translate(-35.46 -126.36)" style="fill:#11325b"/><path d="M309.88,187.52h-4V172.39h2.55l.47,1.52h.16a11.07,11.07,0,0,1,5.42-1.86,3.25,3.25,0,0,1,3.11,1.45,8.37,8.37,0,0,1,.82,4.11v9.91h-4v-9.16a5,5,0,0,0-.34-2.42,1.25,1.25,0,0,0-1.05-.42,5.52,5.52,0,0,0-3.17,1.09Z" transform="translate(-35.46 -126.36)" style="fill:#11325b"/><path d="M170.81,209.73a4.07,4.07,0,0,1,0-5.61,3.84,3.84,0,0,1,2.78-1.11,4,4,0,0,1,2.22.64,3.54,3.54,0,0,1,1.38,1.79h-1.85a1.8,1.8,0,0,0-1.75-1,2.24,2.24,0,0,0-1.68.68,2.83,2.83,0,0,0,0,3.63,2.21,2.21,0,0,0,1.68.69,1.81,1.81,0,0,0,1.75-1h1.85a3.39,3.39,0,0,1-1.38,1.78,4,4,0,0,1-2.22.63A3.84,3.84,0,0,1,170.81,209.73Z" transform="translate(-35.46 -126.36)" style="fill:#11325b"/><path d="M179.33,203.12h1.55v6.47h2.45v1.17h-4Z" transform="translate(-35.46 -126.36)" style="fill:#11325b"/><path d="M184.62,201.61l2.52-1.32v1.25l-2.52,1.15Zm.55,9.15v-7.64h1.55v7.64Z" transform="translate(-35.46 -126.36)" style="fill:#11325b"/><path d="M194.16,203.11h1.55v7.65h-1.55l-3.45-5.29v5.29h-1.55v-7.65h1.55l3.45,5.29Z" transform="translate(-35.46 -126.36)" style="fill:#11325b"/><path d="M198.16,210.76v-7.64h1.54v7.64Z" transform="translate(-35.46 -126.36)" style="fill:#11325b"/><path d="M202.85,209.73a4.07,4.07,0,0,1,0-5.61,3.84,3.84,0,0,1,2.78-1.11,4,4,0,0,1,2.22.64,3.54,3.54,0,0,1,1.38,1.79h-1.85a1.8,1.8,0,0,0-1.75-1,2.26,2.26,0,0,0-1.69.68,2.86,2.86,0,0,0,0,3.63,2.23,2.23,0,0,0,1.69.69,1.82,1.82,0,0,0,1.75-1h1.85a3.39,3.39,0,0,1-1.38,1.78,4,4,0,0,1-2.22.63A3.84,3.84,0,0,1,202.85,209.73Z" transform="translate(-35.46 -126.36)" style="fill:#11325b"/><path d="M216.38,210.76l-.48-1.43h-3l-.49,1.43h-1.64l2.7-7.65h1.83l2.69,7.65Zm-3.06-2.61h2.17L214.4,205Z" transform="translate(-35.46 -126.36)" style="fill:#11325b"/><path d="M225.53,209.59h1a2.47,2.47,0,0,0,1.88-.7,3.1,3.1,0,0,0,0-3.85,2.47,2.47,0,0,0-1.88-.71h-1Zm1-6.47a4.15,4.15,0,0,1,3,1.07,3.94,3.94,0,0,1,0,5.54,4.21,4.21,0,0,1-3,1H224v-7.64Z" transform="translate(-35.46 -126.36)" style="fill:#11325b"/><path d="M237.12,203.11v1.18h-2.87v2h2.54v1.18h-2.54v2.11h2.87v1.18H232.7v-7.65Z" transform="translate(-35.46 -126.36)" style="fill:#11325b"/><path d="M245.71,210.76l-2.78-7.64h1.62l2.09,6.1,2.08-6.1h1.64l-2.79,7.64Z" transform="translate(-35.46 -126.36)" style="fill:#11325b"/><path d="M257.16,210.76l-.48-1.43h-3l-.48,1.43h-1.64l2.7-7.65h1.83l2.69,7.65Zm-3.06-2.61h2.17L255.18,205Z" transform="translate(-35.46 -126.36)" style="fill:#11325b"/><path d="M261.37,209.73a4.07,4.07,0,0,1,0-5.61,3.84,3.84,0,0,1,2.78-1.11,4,4,0,0,1,2.22.64,3.59,3.59,0,0,1,1.38,1.79H265.9a1.8,1.8,0,0,0-1.75-1,2.26,2.26,0,0,0-1.69.68,2.86,2.86,0,0,0,0,3.63,2.23,2.23,0,0,0,1.69.69,1.82,1.82,0,0,0,1.75-1h1.85a3.44,3.44,0,0,1-1.38,1.78,4,4,0,0,1-2.22.63A3.84,3.84,0,0,1,261.37,209.73Z" transform="translate(-35.46 -126.36)" style="fill:#11325b"/><path d="M269.87,207.83v-4.71h1.55v4.71a1.67,1.67,0,0,0,.39,1.2,1.54,1.54,0,0,0,1.14.41,1.59,1.59,0,0,0,1.16-.41,1.63,1.63,0,0,0,.4-1.2v-4.71H276v4.71a2.8,2.8,0,0,1-.9,2.23,3.31,3.31,0,0,1-2.22.78,3.16,3.16,0,0,1-2.17-.76A2.84,2.84,0,0,1,269.87,207.83Z" transform="translate(-35.46 -126.36)" style="fill:#11325b"/><path d="M283.45,203.11H285v7.65h-1.55L280,205.47v5.29h-1.55v-7.65H280l3.45,5.29Z" transform="translate(-35.46 -126.36)" style="fill:#11325b"/><path d="M292.46,210.76l-.49-1.43h-3l-.48,1.43h-1.64l2.7-7.65h1.83l2.68,7.65Zm-3.06-2.61h2.17l-1.1-3.18Z" transform="translate(-35.46 -126.36)" style="fill:#11325b"/><path d="M296.67,209.73a4,4,0,0,1,0-5.61,3.82,3.82,0,0,1,2.78-1.11,4,4,0,0,1,2.22.64,3.52,3.52,0,0,1,1.37,1.79H301.2a1.81,1.81,0,0,0-1.75-1,2.26,2.26,0,0,0-1.69.68,2.83,2.83,0,0,0,0,3.63,2.23,2.23,0,0,0,1.69.69,1.83,1.83,0,0,0,1.75-1H303a3.37,3.37,0,0,1-1.37,1.78,4,4,0,0,1-2.22.63A3.82,3.82,0,0,1,296.67,209.73Z" transform="translate(-35.46 -126.36)" style="fill:#11325b"/><path d="M305.19,210.76v-7.64h1.54v7.64Z" transform="translate(-35.46 -126.36)" style="fill:#11325b"/><path d="M314.35,208.75a2.89,2.89,0,0,0,0-3.63,2.23,2.23,0,0,0-1.69-.68,2.26,2.26,0,0,0-1.69.68,2.86,2.86,0,0,0,0,3.63,2.23,2.23,0,0,0,1.69.69A2.2,2.2,0,0,0,314.35,208.75Zm-1.69,2.09a3.83,3.83,0,0,1-2.78-1.09,4.1,4.1,0,0,1,0-5.63,4,4,0,0,1,5.56,0,3.91,3.91,0,0,1-2.78,6.72Zm-1.33-9.23,2.52-1.32v1.25l-2.52,1.15Z" transform="translate(-35.46 -126.36)" style="fill:#11325b"/><path d="M323.58,203.11h1.55v7.65h-1.55l-3.45-5.29v5.29h-1.55v-7.65h1.55l3.45,5.29Z" transform="translate(-35.46 -126.36)" style="fill:#11325b"/></svg>